<?xml version="1.0" standalone="no"?>
<!DOCTYPE svg PUBLIC "-//W3C//DTD SVG 1.1//EN" "http://www.w3.org/Graphics/SVG/1.1/DTD/svg11.dtd" >
<svg xmlns="http://www.w3.org/2000/svg" xmlns:xlink="http://www.w3.org/1999/xlink" version="1.1">
<metadata>
Created by FontForge 20150824 at Mon Sep 19 01:58:26 2016
 By Everything Fonts
Copyright 1992 by Elfring Soft Fonts, All rights reserved.
</metadata>
<defs>
<font id="dotmat" horiz-adv-x="1327" >
  <font-face 
    font-family="dotmat"
    font-weight="400"
    font-stretch="normal"
    units-per-em="2048"
    panose-1="2 11 5 0 0 0 0 0 0 0"
    ascent="1638"
    descent="-410"
    x-height="985"
    cap-height="1421"
    bbox="0 -436 1280 1421"
    underline-thickness="28"
    underline-position="-135"
    unicode-range="U+0020-2022"
  />
<missing-glyph horiz-adv-x="1536" 
d="M256 0v1280h1024v-1280h-1024zM1247 33v1214h-958v-1214h958z" />
    <glyph glyph-name=".notdef" horiz-adv-x="1536" 
d="M256 0v1280h1024v-1280h-1024zM1247 33v1214h-958v-1214h958z" />
    <glyph glyph-name=".null" horiz-adv-x="0" 
 />
    <glyph glyph-name="nonmarkingreturn" horiz-adv-x="0" 
 />
    <glyph glyph-name="space" unicode=" " 
 />
    <glyph glyph-name="exclam" unicode="!" 
d="M328 1313h-111v108h111v-108zM328 1094h-111v110h111v-110zM328 874h-111v111h111v-111zM328 655h-111v111h111v-111zM328 438h-111v109h111v-109zM328 0h-111v111h111v-111z" />
    <glyph glyph-name="quotedbl" unicode="&#x22;" 
d="M766 1313h-111v108h111v-108zM766 1094h-111v110h111v-110zM328 1313h-111v108h111v-108zM328 1094h-111v110h111v-110z" />
    <glyph glyph-name="numbersign" unicode="#" 
d="M766 1313h-111v108h111v-108zM766 1094h-111v110h111v-110zM985 874h-108v111h108v-111zM328 1313h-111v108h111v-108zM766 874h-111v111h111v-111zM328 1094h-111v110h111v-110zM547 874h-109v111h109v-111zM766 655h-111v111h111v-111zM985 438h-108v109h108v-109z
M328 874h-111v111h111v-111zM766 438h-111v109h111v-109zM111 874h-111v111h111v-111zM328 655h-111v111h111v-111zM547 438h-109v109h109v-109zM766 217h-111v111h111v-111zM328 438h-111v109h111v-109zM766 0h-111v111h111v-111zM111 438h-111v109h111v-109zM328 217h-111
v111h111v-111zM328 0h-111v111h111v-111z" />
    <glyph glyph-name="dollar" unicode="$" 
d="M985 1094h-108v110h108v-110zM547 1313h-109v108h109v-108zM766 1094h-111v110h111v-110zM547 1094h-109v110h109v-110zM328 1094h-111v110h111v-110zM547 874h-109v111h109v-111zM766 655h-111v111h111v-111zM985 438h-108v109h108v-109zM547 655h-109v111h109v-111z
M111 874h-111v111h111v-111zM328 655h-111v111h111v-111zM547 438h-109v109h109v-109zM766 217h-111v111h111v-111zM547 217h-109v111h109v-111zM328 217h-111v111h111v-111zM547 0h-109v111h109v-111zM111 217h-111v111h111v-111z" />
    <glyph glyph-name="percent" unicode="%" 
d="M985 1094h-108v110h108v-110zM328 1313h-111v108h111v-108zM766 874h-111v111h111v-111zM111 1313h-111v108h111v-108zM328 1094h-111v110h111v-110zM111 1094h-111v110h111v-110zM547 655h-109v111h109v-111zM985 217h-108v111h108v-111zM766 217h-111v111h111v-111z
M985 0h-108v111h108v-111zM328 438h-111v109h111v-109zM766 0h-111v111h111v-111zM111 217h-111v111h111v-111z" />
    <glyph glyph-name="ampersand" unicode="&#x26;" 
d="M328 1313h-111v108h111v-108zM547 1094h-109v110h109v-110zM547 874h-109v111h109v-111zM985 438h-108v109h108v-109zM111 1094h-111v110h111v-110zM111 874h-111v111h111v-111zM328 655h-111v111h111v-111zM547 438h-109v109h109v-109zM766 217h-111v111h111v-111z
M985 0h-108v111h108v-111zM111 438h-111v109h111v-109zM547 0h-109v111h109v-111zM111 217h-111v111h111v-111zM328 0h-111v111h111v-111z" />
    <glyph glyph-name="quotesingle" unicode="'" 
d="M547 1313h-109v108h109v-108zM328 1313h-111v108h111v-108zM547 1094h-109v110h109v-110zM328 1094h-111v110h111v-110zM547 874h-109v111h109v-111zM328 655h-111v111h111v-111z" />
    <glyph glyph-name="parenleft" unicode="(" 
d="M766 1313h-111v108h111v-108zM547 1094h-109v110h109v-110zM547 874h-109v111h109v-111zM547 655h-109v111h109v-111zM547 438h-109v109h109v-109zM547 217h-109v111h109v-111zM766 0h-111v111h111v-111z" />
    <glyph glyph-name="parenright" unicode=")" 
d="M328 1313h-111v108h111v-108zM547 1094h-109v110h109v-110zM547 874h-109v111h109v-111zM547 655h-109v111h109v-111zM547 438h-109v109h109v-109zM547 217h-109v111h109v-111zM328 0h-111v111h111v-111z" />
    <glyph glyph-name="asterisk" unicode="*" 
d="M766 1094h-111v110h111v-110zM985 655h-108v111h108v-111zM328 1094h-111v110h111v-110zM547 874h-109v111h109v-111zM766 655h-111v111h111v-111zM547 655h-109v111h109v-111zM328 655h-111v111h111v-111zM547 438h-109v109h109v-109zM766 217h-111v111h111v-111z
M111 655h-111v111h111v-111zM328 217h-111v111h111v-111z" />
    <glyph glyph-name="plus" unicode="+" 
d="M547 1094h-109v110h109v-110zM985 655h-108v111h108v-111zM547 874h-109v111h109v-111zM766 655h-111v111h111v-111zM547 655h-109v111h109v-111zM328 655h-111v111h111v-111zM547 438h-109v109h109v-109zM111 655h-111v111h111v-111zM547 217h-109v111h109v-111z" />
    <glyph glyph-name="comma" unicode="," 
d="M547 438h-109v109h109v-109zM328 438h-111v109h111v-109zM547 217h-109v111h109v-111zM328 217h-111v111h111v-111zM547 0h-109v111h109v-111zM328 -217h-111v106h111v-106z" />
    <glyph glyph-name="hyphen" unicode="-" 
d="M985 655h-108v111h108v-111zM766 655h-111v111h111v-111zM547 655h-109v111h109v-111zM328 655h-111v111h111v-111zM111 655h-111v111h111v-111z" />
    <glyph glyph-name="period" unicode="." 
d="M547 217h-109v111h109v-111zM328 217h-111v111h111v-111zM547 0h-109v111h109v-111zM328 0h-111v111h111v-111z" />
    <glyph glyph-name="slash" unicode="/" 
d="M985 1094h-108v110h108v-110zM766 874h-111v111h111v-111zM547 655h-109v111h109v-111zM328 438h-111v109h111v-109zM111 217h-111v111h111v-111z" />
    <glyph glyph-name="zero" unicode="0" 
d="M766 1313h-111v108h111v-108zM985 1094h-108v110h108v-110zM547 1313h-109v108h109v-108zM985 874h-108v111h108v-111zM328 1313h-111v108h111v-108zM766 874h-111v111h111v-111zM985 655h-108v111h108v-111zM985 438h-108v109h108v-109zM111 1094h-111v110h111v-110z
M547 655h-109v111h109v-111zM985 217h-108v111h108v-111zM111 874h-111v111h111v-111zM111 655h-111v111h111v-111zM328 438h-111v109h111v-109zM766 0h-111v111h111v-111zM111 438h-111v109h111v-109zM547 0h-109v111h109v-111zM111 217h-111v111h111v-111zM328 0h-111v111
h111v-111z" />
    <glyph glyph-name="one" unicode="1" 
d="M547 1313h-109v108h109v-108zM547 1094h-109v110h109v-110zM328 1094h-111v110h111v-110zM547 874h-109v111h109v-111zM547 655h-109v111h109v-111zM547 438h-109v109h109v-109zM547 217h-109v111h109v-111zM766 0h-111v111h111v-111zM547 0h-109v111h109v-111zM328 0
h-111v111h111v-111z" />
    <glyph glyph-name="two" unicode="2" 
d="M766 1313h-111v108h111v-108zM985 1094h-108v110h108v-110zM547 1313h-109v108h109v-108zM985 874h-108v111h108v-111zM328 1313h-111v108h111v-108zM766 655h-111v111h111v-111zM111 1094h-111v110h111v-110zM547 655h-109v111h109v-111zM985 0h-108v111h108v-111z
M328 438h-111v109h111v-109zM766 0h-111v111h111v-111zM547 0h-109v111h109v-111zM111 217h-111v111h111v-111zM328 0h-111v111h111v-111zM111 0h-111v111h111v-111z" />
    <glyph glyph-name="three" unicode="3" 
d="M766 1313h-111v108h111v-108zM985 1094h-108v110h108v-110zM547 1313h-109v108h109v-108zM985 874h-108v111h108v-111zM328 1313h-111v108h111v-108zM766 655h-111v111h111v-111zM985 438h-108v109h108v-109zM111 1094h-111v110h111v-110zM547 655h-109v111h109v-111z
M985 217h-108v111h108v-111zM328 655h-111v111h111v-111zM766 0h-111v111h111v-111zM547 0h-109v111h109v-111zM111 217h-111v111h111v-111zM328 0h-111v111h111v-111z" />
    <glyph glyph-name="four" unicode="4" 
d="M766 1313h-111v108h111v-108zM766 1094h-111v110h111v-110zM547 1094h-109v110h109v-110zM766 874h-111v111h111v-111zM766 655h-111v111h111v-111zM985 438h-108v109h108v-109zM328 874h-111v111h111v-111zM766 438h-111v109h111v-109zM547 438h-109v109h109v-109z
M766 217h-111v111h111v-111zM111 655h-111v111h111v-111zM328 438h-111v109h111v-109zM766 0h-111v111h111v-111zM111 438h-111v109h111v-109z" />
    <glyph glyph-name="five" unicode="5" 
d="M985 1313h-108v108h108v-108zM766 1313h-111v108h111v-108zM547 1313h-109v108h109v-108zM328 1313h-111v108h111v-108zM766 874h-111v111h111v-111zM985 655h-108v111h108v-111zM111 1313h-111v108h111v-108zM547 874h-109v111h109v-111zM985 438h-108v109h108v-109z
M111 1094h-111v110h111v-110zM328 874h-111v111h111v-111zM985 217h-108v111h108v-111zM111 874h-111v111h111v-111zM766 0h-111v111h111v-111zM547 0h-109v111h109v-111zM111 217h-111v111h111v-111zM328 0h-111v111h111v-111z" />
    <glyph glyph-name="six" unicode="6" 
d="M766 1313h-111v108h111v-108zM547 1313h-109v108h109v-108zM328 1094h-111v110h111v-110zM766 655h-111v111h111v-111zM985 438h-108v109h108v-109zM547 655h-109v111h109v-111zM985 217h-108v111h108v-111zM111 874h-111v111h111v-111zM328 655h-111v111h111v-111z
M111 655h-111v111h111v-111zM766 0h-111v111h111v-111zM111 438h-111v109h111v-109zM547 0h-109v111h109v-111zM111 217h-111v111h111v-111zM328 0h-111v111h111v-111z" />
    <glyph glyph-name="seven" unicode="7" 
d="M985 1313h-108v108h108v-108zM766 1313h-111v108h111v-108zM985 1094h-108v110h108v-110zM547 1313h-109v108h109v-108zM328 1313h-111v108h111v-108zM766 874h-111v111h111v-111zM111 1313h-111v108h111v-108zM547 655h-109v111h109v-111zM328 438h-111v109h111v-109z
M328 217h-111v111h111v-111zM328 0h-111v111h111v-111z" />
    <glyph glyph-name="eight" unicode="8" 
d="M766 1313h-111v108h111v-108zM985 1094h-108v110h108v-110zM547 1313h-109v108h109v-108zM985 874h-108v111h108v-111zM328 1313h-111v108h111v-108zM766 655h-111v111h111v-111zM985 438h-108v109h108v-109zM111 1094h-111v110h111v-110zM547 655h-109v111h109v-111z
M985 217h-108v111h108v-111zM111 874h-111v111h111v-111zM328 655h-111v111h111v-111zM766 0h-111v111h111v-111zM111 438h-111v109h111v-109zM547 0h-109v111h109v-111zM111 217h-111v111h111v-111zM328 0h-111v111h111v-111z" />
    <glyph glyph-name="nine" unicode="9" 
d="M766 1313h-111v108h111v-108zM985 1094h-108v110h108v-110zM547 1313h-109v108h109v-108zM985 874h-108v111h108v-111zM328 1313h-111v108h111v-108zM985 655h-108v111h108v-111zM766 655h-111v111h111v-111zM985 438h-108v109h108v-109zM111 1094h-111v110h111v-110z
M547 655h-109v111h109v-111zM111 874h-111v111h111v-111zM328 655h-111v111h111v-111zM766 217h-111v111h111v-111zM547 0h-109v111h109v-111zM328 0h-111v111h111v-111z" />
    <glyph glyph-name="colon" unicode=":" 
d="M547 874h-109v111h109v-111zM328 874h-111v111h111v-111zM547 655h-109v111h109v-111zM328 655h-111v111h111v-111zM547 217h-109v111h109v-111zM328 217h-111v111h111v-111zM547 0h-109v111h109v-111zM328 0h-111v111h111v-111z" />
    <glyph glyph-name="semicolon" unicode=";" 
d="M547 1094h-109v110h109v-110zM328 1094h-111v110h111v-110zM547 874h-109v111h109v-111zM328 874h-111v111h111v-111zM547 438h-109v109h109v-109zM328 438h-111v109h111v-109zM547 217h-109v111h109v-111zM328 217h-111v111h111v-111zM547 0h-109v111h109v-111z
M328 -217h-111v106h111v-106z" />
    <glyph glyph-name="less" unicode="&#x3c;" 
d="M985 1313h-108v108h108v-108zM766 1094h-111v110h111v-110zM547 874h-109v111h109v-111zM328 655h-111v111h111v-111zM547 438h-109v109h109v-109zM766 217h-111v111h111v-111zM985 0h-108v111h108v-111z" />
    <glyph glyph-name="equal" unicode="=" 
d="M985 874h-108v111h108v-111zM766 874h-111v111h111v-111zM547 874h-109v111h109v-111zM985 438h-108v109h108v-109zM328 874h-111v111h111v-111zM766 438h-111v109h111v-109zM111 874h-111v111h111v-111zM547 438h-109v109h109v-109zM328 438h-111v109h111v-109zM111 438
h-111v109h111v-109z" />
    <glyph glyph-name="greater" unicode="&#x3e;" 
d="M111 1313h-111v108h111v-108zM328 1094h-111v110h111v-110zM547 874h-109v111h109v-111zM766 655h-111v111h111v-111zM547 438h-109v109h109v-109zM328 217h-111v111h111v-111zM111 0h-111v111h111v-111z" />
    <glyph glyph-name="question" unicode="?" 
d="M766 1313h-111v108h111v-108zM985 1094h-108v110h108v-110zM547 1313h-109v108h109v-108zM985 874h-108v111h108v-111zM328 1313h-111v108h111v-108zM766 655h-111v111h111v-111zM111 1094h-111v110h111v-110zM547 438h-109v109h109v-109zM547 0h-109v111h109v-111z" />
    <glyph glyph-name="at" unicode="@" 
d="M766 1313h-111v108h111v-108zM985 1094h-108v110h108v-110zM547 1313h-109v108h109v-108zM985 874h-108v111h108v-111zM328 1313h-111v108h111v-108zM547 1094h-109v110h109v-110zM985 655h-108v111h108v-111zM547 874h-109v111h109v-111zM766 655h-111v111h111v-111z
M111 1094h-111v110h111v-110zM547 655h-109v111h109v-111zM111 874h-111v111h111v-111zM111 655h-111v111h111v-111zM766 0h-111v111h111v-111zM111 438h-111v109h111v-109zM547 0h-109v111h109v-111zM111 217h-111v111h111v-111zM328 0h-111v111h111v-111z" />
    <glyph glyph-name="A" unicode="A" 
d="M766 1313h-111v108h111v-108zM985 1094h-108v110h108v-110zM547 1313h-109v108h109v-108zM985 874h-108v111h108v-111zM328 1313h-111v108h111v-108zM985 655h-108v111h108v-111zM766 655h-111v111h111v-111zM985 438h-108v109h108v-109zM111 1094h-111v110h111v-110z
M547 655h-109v111h109v-111zM985 217h-108v111h108v-111zM111 874h-111v111h111v-111zM328 655h-111v111h111v-111zM985 0h-108v111h108v-111zM111 655h-111v111h111v-111zM111 438h-111v109h111v-109zM111 217h-111v111h111v-111zM111 0h-111v111h111v-111z" />
    <glyph glyph-name="B" unicode="B" 
d="M766 1313h-111v108h111v-108zM985 1094h-108v110h108v-110zM547 1313h-109v108h109v-108zM985 874h-108v111h108v-111zM328 1313h-111v108h111v-108zM111 1313h-111v108h111v-108zM766 655h-111v111h111v-111zM985 438h-108v109h108v-109zM111 1094h-111v110h111v-110z
M547 655h-109v111h109v-111zM985 217h-108v111h108v-111zM111 874h-111v111h111v-111zM328 655h-111v111h111v-111zM111 655h-111v111h111v-111zM766 0h-111v111h111v-111zM111 438h-111v109h111v-109zM547 0h-109v111h109v-111zM111 217h-111v111h111v-111zM328 0h-111v111
h111v-111zM111 0h-111v111h111v-111z" />
    <glyph glyph-name="C" unicode="C" 
d="M766 1313h-111v108h111v-108zM985 1094h-108v110h108v-110zM547 1313h-109v108h109v-108zM328 1313h-111v108h111v-108zM111 1094h-111v110h111v-110zM985 217h-108v111h108v-111zM111 874h-111v111h111v-111zM111 655h-111v111h111v-111zM766 0h-111v111h111v-111z
M111 438h-111v109h111v-109zM547 0h-109v111h109v-111zM111 217h-111v111h111v-111zM328 0h-111v111h111v-111z" />
    <glyph glyph-name="D" unicode="D" 
d="M766 1313h-111v108h111v-108zM985 1094h-108v110h108v-110zM547 1313h-109v108h109v-108zM985 874h-108v111h108v-111zM328 1313h-111v108h111v-108zM985 655h-108v111h108v-111zM111 1313h-111v108h111v-108zM985 438h-108v109h108v-109zM111 1094h-111v110h111v-110z
M985 217h-108v111h108v-111zM111 874h-111v111h111v-111zM111 655h-111v111h111v-111zM766 0h-111v111h111v-111zM111 438h-111v109h111v-109zM547 0h-109v111h109v-111zM111 217h-111v111h111v-111zM328 0h-111v111h111v-111zM111 0h-111v111h111v-111z" />
    <glyph glyph-name="E" unicode="E" 
d="M985 1313h-108v108h108v-108zM766 1313h-111v108h111v-108zM547 1313h-109v108h109v-108zM328 1313h-111v108h111v-108zM111 1313h-111v108h111v-108zM766 655h-111v111h111v-111zM111 1094h-111v110h111v-110zM547 655h-109v111h109v-111zM111 874h-111v111h111v-111z
M328 655h-111v111h111v-111zM985 0h-108v111h108v-111zM111 655h-111v111h111v-111zM766 0h-111v111h111v-111zM111 438h-111v109h111v-109zM547 0h-109v111h109v-111zM111 217h-111v111h111v-111zM328 0h-111v111h111v-111zM111 0h-111v111h111v-111z" />
    <glyph glyph-name="F" unicode="F" 
d="M985 1313h-108v108h108v-108zM766 1313h-111v108h111v-108zM547 1313h-109v108h109v-108zM328 1313h-111v108h111v-108zM111 1313h-111v108h111v-108zM766 655h-111v111h111v-111zM111 1094h-111v110h111v-110zM547 655h-109v111h109v-111zM111 874h-111v111h111v-111z
M328 655h-111v111h111v-111zM111 655h-111v111h111v-111zM111 438h-111v109h111v-109zM111 217h-111v111h111v-111zM111 0h-111v111h111v-111z" />
    <glyph glyph-name="G" unicode="G" 
d="M766 1313h-111v108h111v-108zM985 1094h-108v110h108v-110zM547 1313h-109v108h109v-108zM328 1313h-111v108h111v-108zM985 438h-108v109h108v-109zM111 1094h-111v110h111v-110zM766 438h-111v109h111v-109zM985 217h-108v111h108v-111zM111 874h-111v111h111v-111z
M547 438h-109v109h109v-109zM985 0h-108v111h108v-111zM111 655h-111v111h111v-111zM766 0h-111v111h111v-111zM111 438h-111v109h111v-109zM547 0h-109v111h109v-111zM111 217h-111v111h111v-111zM328 0h-111v111h111v-111z" />
    <glyph glyph-name="H" unicode="H" 
d="M985 1313h-108v108h108v-108zM985 1094h-108v110h108v-110zM985 874h-108v111h108v-111zM985 655h-108v111h108v-111zM111 1313h-111v108h111v-108zM766 655h-111v111h111v-111zM985 438h-108v109h108v-109zM111 1094h-111v110h111v-110zM547 655h-109v111h109v-111z
M985 217h-108v111h108v-111zM111 874h-111v111h111v-111zM328 655h-111v111h111v-111zM985 0h-108v111h108v-111zM111 655h-111v111h111v-111zM111 438h-111v109h111v-109zM111 217h-111v111h111v-111zM111 0h-111v111h111v-111z" />
    <glyph glyph-name="I" unicode="I" 
d="M766 1313h-111v108h111v-108zM547 1313h-109v108h109v-108zM328 1313h-111v108h111v-108zM547 1094h-109v110h109v-110zM547 874h-109v111h109v-111zM547 655h-109v111h109v-111zM547 438h-109v109h109v-109zM547 217h-109v111h109v-111zM766 0h-111v111h111v-111zM547 0
h-109v111h109v-111zM328 0h-111v111h111v-111z" />
    <glyph glyph-name="J" unicode="J" 
d="M985 1313h-108v108h108v-108zM985 1094h-108v110h108v-110zM985 874h-108v111h108v-111zM985 655h-108v111h108v-111zM985 438h-108v109h108v-109zM985 217h-108v111h108v-111zM766 0h-111v111h111v-111zM547 0h-109v111h109v-111zM111 217h-111v111h111v-111zM328 0
h-111v111h111v-111z" />
    <glyph glyph-name="K" unicode="K" 
d="M985 1313h-108v108h108v-108zM766 1094h-111v110h111v-110zM111 1313h-111v108h111v-108zM547 874h-109v111h109v-111zM111 1094h-111v110h111v-110zM111 874h-111v111h111v-111zM328 655h-111v111h111v-111zM547 438h-109v109h109v-109zM766 217h-111v111h111v-111z
M985 0h-108v111h108v-111zM111 655h-111v111h111v-111zM111 438h-111v109h111v-109zM111 217h-111v111h111v-111zM111 0h-111v111h111v-111z" />
    <glyph glyph-name="L" unicode="L" 
d="M111 1313h-111v108h111v-108zM111 1094h-111v110h111v-110zM111 874h-111v111h111v-111zM985 0h-108v111h108v-111zM111 655h-111v111h111v-111zM766 0h-111v111h111v-111zM111 438h-111v109h111v-109zM547 0h-109v111h109v-111zM111 217h-111v111h111v-111zM328 0h-111
v111h111v-111zM111 0h-111v111h111v-111z" />
    <glyph glyph-name="M" unicode="M" 
d="M985 1313h-108v108h108v-108zM985 1094h-108v110h108v-110zM766 1094h-111v110h111v-110zM985 874h-108v111h108v-111zM985 655h-108v111h108v-111zM111 1313h-111v108h111v-108zM328 1094h-111v110h111v-110zM547 874h-109v111h109v-111zM985 438h-108v109h108v-109z
M111 1094h-111v110h111v-110zM547 655h-109v111h109v-111zM985 217h-108v111h108v-111zM111 874h-111v111h111v-111zM985 0h-108v111h108v-111zM111 655h-111v111h111v-111zM111 438h-111v109h111v-109zM111 217h-111v111h111v-111zM111 0h-111v111h111v-111z" />
    <glyph glyph-name="N" unicode="N" 
d="M985 1313h-108v108h108v-108zM985 1094h-108v110h108v-110zM985 874h-108v111h108v-111zM985 655h-108v111h108v-111zM111 1313h-111v108h111v-108zM985 438h-108v109h108v-109zM111 1094h-111v110h111v-110zM328 874h-111v111h111v-111zM547 655h-109v111h109v-111z
M766 438h-111v109h111v-109zM985 217h-108v111h108v-111zM111 874h-111v111h111v-111zM985 0h-108v111h108v-111zM111 655h-111v111h111v-111zM111 438h-111v109h111v-109zM111 217h-111v111h111v-111zM111 0h-111v111h111v-111z" />
    <glyph glyph-name="O" unicode="O" 
d="M766 1313h-111v108h111v-108zM985 1094h-108v110h108v-110zM547 1313h-109v108h109v-108zM985 874h-108v111h108v-111zM328 1313h-111v108h111v-108zM985 655h-108v111h108v-111zM985 438h-108v109h108v-109zM111 1094h-111v110h111v-110zM985 217h-108v111h108v-111z
M111 874h-111v111h111v-111zM111 655h-111v111h111v-111zM766 0h-111v111h111v-111zM111 438h-111v109h111v-109zM547 0h-109v111h109v-111zM111 217h-111v111h111v-111zM328 0h-111v111h111v-111z" />
    <glyph glyph-name="P" unicode="P" 
d="M766 1313h-111v108h111v-108zM985 1094h-108v110h108v-110zM547 1313h-109v108h109v-108zM985 874h-108v111h108v-111zM328 1313h-111v108h111v-108zM111 1313h-111v108h111v-108zM766 655h-111v111h111v-111zM111 1094h-111v110h111v-110zM547 655h-109v111h109v-111z
M111 874h-111v111h111v-111zM328 655h-111v111h111v-111zM111 655h-111v111h111v-111zM111 438h-111v109h111v-109zM111 217h-111v111h111v-111zM111 0h-111v111h111v-111z" />
    <glyph glyph-name="Q" unicode="Q" 
d="M766 1313h-111v108h111v-108zM985 1094h-108v110h108v-110zM547 1313h-109v108h109v-108zM985 874h-108v111h108v-111zM328 1313h-111v108h111v-108zM985 655h-108v111h108v-111zM985 438h-108v109h108v-109zM111 1094h-111v110h111v-110zM111 874h-111v111h111v-111z
M547 438h-109v109h109v-109zM766 217h-111v111h111v-111zM985 0h-108v111h108v-111zM111 655h-111v111h111v-111zM111 438h-111v109h111v-109zM547 0h-109v111h109v-111zM111 217h-111v111h111v-111zM328 0h-111v111h111v-111z" />
    <glyph glyph-name="R" unicode="R" 
d="M766 1313h-111v108h111v-108zM985 1094h-108v110h108v-110zM547 1313h-109v108h109v-108zM985 874h-108v111h108v-111zM328 1313h-111v108h111v-108zM111 1313h-111v108h111v-108zM766 655h-111v111h111v-111zM111 1094h-111v110h111v-110zM547 655h-109v111h109v-111z
M111 874h-111v111h111v-111zM328 655h-111v111h111v-111zM547 438h-109v109h109v-109zM766 217h-111v111h111v-111zM985 0h-108v111h108v-111zM111 655h-111v111h111v-111zM111 438h-111v109h111v-109zM111 217h-111v111h111v-111zM111 0h-111v111h111v-111z" />
    <glyph glyph-name="S" unicode="S" 
d="M766 1313h-111v108h111v-108zM985 1094h-108v110h108v-110zM547 1313h-109v108h109v-108zM328 1313h-111v108h111v-108zM766 655h-111v111h111v-111zM985 438h-108v109h108v-109zM111 1094h-111v110h111v-110zM547 655h-109v111h109v-111zM985 217h-108v111h108v-111z
M111 874h-111v111h111v-111zM328 655h-111v111h111v-111zM766 0h-111v111h111v-111zM547 0h-109v111h109v-111zM111 217h-111v111h111v-111zM328 0h-111v111h111v-111z" />
    <glyph glyph-name="T" unicode="T" 
d="M985 1313h-108v108h108v-108zM766 1313h-111v108h111v-108zM547 1313h-109v108h109v-108zM328 1313h-111v108h111v-108zM547 1094h-109v110h109v-110zM111 1313h-111v108h111v-108zM547 874h-109v111h109v-111zM547 655h-109v111h109v-111zM547 438h-109v109h109v-109z
M547 217h-109v111h109v-111zM547 0h-109v111h109v-111z" />
    <glyph glyph-name="U" unicode="U" 
d="M985 1313h-108v108h108v-108zM985 1094h-108v110h108v-110zM985 874h-108v111h108v-111zM985 655h-108v111h108v-111zM111 1313h-111v108h111v-108zM985 438h-108v109h108v-109zM111 1094h-111v110h111v-110zM985 217h-108v111h108v-111zM111 874h-111v111h111v-111z
M111 655h-111v111h111v-111zM766 0h-111v111h111v-111zM111 438h-111v109h111v-109zM547 0h-109v111h109v-111zM111 217h-111v111h111v-111zM328 0h-111v111h111v-111z" />
    <glyph glyph-name="V" unicode="V" 
d="M985 1313h-108v108h108v-108zM985 1094h-108v110h108v-110zM985 874h-108v111h108v-111zM111 1313h-111v108h111v-108zM766 655h-111v111h111v-111zM111 1094h-111v110h111v-110zM766 438h-111v109h111v-109zM111 874h-111v111h111v-111zM328 655h-111v111h111v-111z
M328 438h-111v109h111v-109zM547 217h-109v111h109v-111zM547 0h-109v111h109v-111z" />
    <glyph glyph-name="W" unicode="W" 
d="M985 1313h-108v108h108v-108zM985 1094h-108v110h108v-110zM985 874h-108v111h108v-111zM985 655h-108v111h108v-111zM111 1313h-111v108h111v-108zM985 438h-108v109h108v-109zM111 1094h-111v110h111v-110zM547 655h-109v111h109v-111zM985 217h-108v111h108v-111z
M111 874h-111v111h111v-111zM547 438h-109v109h109v-109zM766 217h-111v111h111v-111zM985 0h-108v111h108v-111zM111 655h-111v111h111v-111zM111 438h-111v109h111v-109zM328 217h-111v111h111v-111zM111 217h-111v111h111v-111zM111 0h-111v111h111v-111z" />
    <glyph glyph-name="X" unicode="X" 
d="M985 1313h-108v108h108v-108zM985 1094h-108v110h108v-110zM766 874h-111v111h111v-111zM111 1313h-111v108h111v-108zM111 1094h-111v110h111v-110zM328 874h-111v111h111v-111zM547 655h-109v111h109v-111zM766 438h-111v109h111v-109zM985 217h-108v111h108v-111z
M985 0h-108v111h108v-111zM328 438h-111v109h111v-109zM111 217h-111v111h111v-111zM111 0h-111v111h111v-111z" />
    <glyph glyph-name="Y" unicode="Y" 
d="M985 1313h-108v108h108v-108zM985 1094h-108v110h108v-110zM766 874h-111v111h111v-111zM111 1313h-111v108h111v-108zM111 1094h-111v110h111v-110zM328 874h-111v111h111v-111zM547 655h-109v111h109v-111zM547 438h-109v109h109v-109zM547 217h-109v111h109v-111z
M547 0h-109v111h109v-111z" />
    <glyph glyph-name="Z" unicode="Z" 
d="M985 1313h-108v108h108v-108zM766 1313h-111v108h111v-108zM985 1094h-108v110h108v-110zM547 1313h-109v108h109v-108zM328 1313h-111v108h111v-108zM766 874h-111v111h111v-111zM111 1313h-111v108h111v-108zM547 655h-109v111h109v-111zM985 0h-108v111h108v-111z
M328 438h-111v109h111v-109zM766 0h-111v111h111v-111zM547 0h-109v111h109v-111zM111 217h-111v111h111v-111zM328 0h-111v111h111v-111zM111 0h-111v111h111v-111z" />
    <glyph glyph-name="bracketleft" unicode="[" 
d="M985 1313h-108v108h108v-108zM766 1313h-111v108h111v-108zM547 1313h-109v108h109v-108zM547 1094h-109v110h109v-110zM547 874h-109v111h109v-111zM547 655h-109v111h109v-111zM547 438h-109v109h109v-109zM985 0h-108v111h108v-111zM547 217h-109v111h109v-111zM766 0
h-111v111h111v-111zM547 0h-109v111h109v-111z" />
    <glyph glyph-name="backslash" unicode="\" 
d="M111 1094h-111v110h111v-110zM328 874h-111v111h111v-111zM547 655h-109v111h109v-111zM766 438h-111v109h111v-109zM985 217h-108v111h108v-111z" />
    <glyph glyph-name="bracketright" unicode="]" 
d="M547 1313h-109v108h109v-108zM328 1313h-111v108h111v-108zM547 1094h-109v110h109v-110zM111 1313h-111v108h111v-108zM547 874h-109v111h109v-111zM547 655h-109v111h109v-111zM547 438h-109v109h109v-109zM547 217h-109v111h109v-111zM547 0h-109v111h109v-111zM328 0
h-111v111h111v-111zM111 0h-111v111h111v-111z" />
    <glyph glyph-name="asciicircum" unicode="^" 
d="M547 1313h-109v108h109v-108zM766 1094h-111v110h111v-110zM985 874h-108v111h108v-111zM328 1094h-111v110h111v-110zM111 874h-111v111h111v-111z" />
    <glyph glyph-name="underscore" unicode="_" 
d="M985 -436h-108v108h108v-108zM766 -436h-111v108h111v-108zM547 -436h-109v108h109v-108zM328 -436h-111v108h111v-108zM111 -436h-111v108h111v-108z" />
    <glyph glyph-name="grave" unicode="`" 
d="M547 1313h-109v108h109v-108zM328 1313h-111v108h111v-108zM547 1094h-109v110h109v-110zM328 1094h-111v110h111v-110zM328 874h-111v111h111v-111zM547 655h-109v111h109v-111z" />
    <glyph glyph-name="a" unicode="a" 
d="M547 874h-109v111h109v-111zM766 655h-111v111h111v-111zM328 874h-111v111h111v-111zM766 438h-111v109h111v-109zM547 438h-109v109h109v-109zM766 217h-111v111h111v-111zM985 0h-108v111h108v-111zM328 438h-111v109h111v-109zM766 0h-111v111h111v-111zM547 0h-109
v111h109v-111zM111 217h-111v111h111v-111zM328 0h-111v111h111v-111z" />
    <glyph glyph-name="b" unicode="b" 
d="M766 874h-111v111h111v-111zM985 655h-108v111h108v-111zM111 1313h-111v108h111v-108zM547 874h-109v111h109v-111zM985 438h-108v109h108v-109zM111 1094h-111v110h111v-110zM985 217h-108v111h108v-111zM111 874h-111v111h111v-111zM328 655h-111v111h111v-111z
M111 655h-111v111h111v-111zM766 0h-111v111h111v-111zM111 438h-111v109h111v-109zM547 0h-109v111h109v-111zM111 217h-111v111h111v-111zM328 0h-111v111h111v-111zM111 0h-111v111h111v-111z" />
    <glyph glyph-name="c" unicode="c" 
d="M766 874h-111v111h111v-111zM547 874h-109v111h109v-111zM328 874h-111v111h111v-111zM985 217h-108v111h108v-111zM111 655h-111v111h111v-111zM766 0h-111v111h111v-111zM111 438h-111v109h111v-109zM547 0h-109v111h109v-111zM111 217h-111v111h111v-111zM328 0h-111
v111h111v-111z" />
    <glyph glyph-name="d" unicode="d" 
d="M985 1313h-108v108h108v-108zM985 1094h-108v110h108v-110zM985 874h-108v111h108v-111zM985 655h-108v111h108v-111zM547 874h-109v111h109v-111zM766 655h-111v111h111v-111zM985 438h-108v109h108v-109zM328 874h-111v111h111v-111zM985 217h-108v111h108v-111zM985 0
h-108v111h108v-111zM111 655h-111v111h111v-111zM766 0h-111v111h111v-111zM111 438h-111v109h111v-109zM547 0h-109v111h109v-111zM111 217h-111v111h111v-111zM328 0h-111v111h111v-111z" />
    <glyph glyph-name="e" unicode="e" 
d="M766 874h-111v111h111v-111zM985 655h-108v111h108v-111zM547 874h-109v111h109v-111zM328 874h-111v111h111v-111zM766 438h-111v109h111v-109zM547 438h-109v109h109v-109zM111 655h-111v111h111v-111zM328 438h-111v109h111v-109zM766 0h-111v111h111v-111zM111 438
h-111v109h111v-109zM547 0h-109v111h109v-111zM111 217h-111v111h111v-111zM328 0h-111v111h111v-111z" />
    <glyph glyph-name="f" unicode="f" 
d="M547 1313h-109v108h109v-108zM766 1094h-111v110h111v-110zM328 1094h-111v110h111v-110zM328 874h-111v111h111v-111zM547 655h-109v111h109v-111zM328 655h-111v111h111v-111zM111 655h-111v111h111v-111zM328 438h-111v109h111v-109zM328 217h-111v111h111v-111z
M328 0h-111v111h111v-111z" />
    <glyph glyph-name="g" unicode="g" 
d="M766 874h-111v111h111v-111zM985 655h-108v111h108v-111zM547 874h-109v111h109v-111zM985 438h-108v109h108v-109zM328 874h-111v111h111v-111zM985 217h-108v111h108v-111zM985 0h-108v111h108v-111zM111 655h-111v111h111v-111zM766 0h-111v111h111v-111zM985 -217
h-108v106h108v-106zM111 438h-111v109h111v-109zM547 0h-109v111h109v-111zM111 217h-111v111h111v-111zM328 0h-111v111h111v-111zM766 -436h-111v108h111v-108zM547 -436h-109v108h109v-108zM328 -436h-111v108h111v-108z" />
    <glyph glyph-name="h" unicode="h" 
d="M766 874h-111v111h111v-111zM985 655h-108v111h108v-111zM111 1313h-111v108h111v-108zM547 874h-109v111h109v-111zM985 438h-108v109h108v-109zM111 1094h-111v110h111v-110zM985 217h-108v111h108v-111zM111 874h-111v111h111v-111zM328 655h-111v111h111v-111zM985 0
h-108v111h108v-111zM111 655h-111v111h111v-111zM111 438h-111v109h111v-109zM111 217h-111v111h111v-111zM111 0h-111v111h111v-111z" />
    <glyph glyph-name="i" unicode="i" 
d="M547 1313h-109v108h109v-108zM547 874h-109v111h109v-111zM328 874h-111v111h111v-111zM547 655h-109v111h109v-111zM547 438h-109v109h109v-109zM547 217h-109v111h109v-111zM766 0h-111v111h111v-111zM547 0h-109v111h109v-111zM328 0h-111v111h111v-111z" />
    <glyph glyph-name="j" unicode="j" 
d="M766 1313h-111v108h111v-108zM766 874h-111v111h111v-111zM547 874h-109v111h109v-111zM766 655h-111v111h111v-111zM766 438h-111v109h111v-109zM766 217h-111v111h111v-111zM766 0h-111v111h111v-111zM766 -217h-111v106h111v-106zM111 0h-111v111h111v-111zM547 -436
h-109v108h109v-108zM111 -217h-111v106h111v-106zM328 -436h-111v108h111v-108z" />
    <glyph glyph-name="k" unicode="k" 
d="M985 874h-108v111h108v-111zM328 1313h-111v108h111v-108zM328 1094h-111v110h111v-110zM766 655h-111v111h111v-111zM328 874h-111v111h111v-111zM328 655h-111v111h111v-111zM547 438h-109v109h109v-109zM766 217h-111v111h111v-111zM985 0h-108v111h108v-111zM328 438
h-111v109h111v-109zM328 217h-111v111h111v-111zM328 0h-111v111h111v-111z" />
    <glyph glyph-name="l" unicode="l" 
d="M547 1313h-109v108h109v-108zM328 1313h-111v108h111v-108zM547 1094h-109v110h109v-110zM547 874h-109v111h109v-111zM547 655h-109v111h109v-111zM547 438h-109v109h109v-109zM547 217h-109v111h109v-111zM766 0h-111v111h111v-111zM547 0h-109v111h109v-111zM328 0
h-111v111h111v-111z" />
    <glyph glyph-name="m" unicode="m" 
d="M766 874h-111v111h111v-111zM985 655h-108v111h108v-111zM985 438h-108v109h108v-109zM328 874h-111v111h111v-111zM547 655h-109v111h109v-111zM985 217h-108v111h108v-111zM547 438h-109v109h109v-109zM985 0h-108v111h108v-111zM111 655h-111v111h111v-111zM111 438
h-111v109h111v-109zM111 217h-111v111h111v-111zM111 0h-111v111h111v-111z" />
    <glyph glyph-name="n" unicode="n" 
d="M766 874h-111v111h111v-111zM985 655h-108v111h108v-111zM547 874h-109v111h109v-111zM985 438h-108v109h108v-109zM985 217h-108v111h108v-111zM111 874h-111v111h111v-111zM328 655h-111v111h111v-111zM985 0h-108v111h108v-111zM111 655h-111v111h111v-111zM111 438
h-111v109h111v-109zM111 217h-111v111h111v-111zM111 0h-111v111h111v-111z" />
    <glyph glyph-name="o" unicode="o" 
d="M766 874h-111v111h111v-111zM985 655h-108v111h108v-111zM547 874h-109v111h109v-111zM985 438h-108v109h108v-109zM328 874h-111v111h111v-111zM985 217h-108v111h108v-111zM111 655h-111v111h111v-111zM766 0h-111v111h111v-111zM111 438h-111v109h111v-109zM547 0
h-109v111h109v-111zM111 217h-111v111h111v-111zM328 0h-111v111h111v-111z" />
    <glyph glyph-name="p" unicode="p" 
d="M766 874h-111v111h111v-111zM985 655h-108v111h108v-111zM547 874h-109v111h109v-111zM985 438h-108v109h108v-109zM328 874h-111v111h111v-111zM111 874h-111v111h111v-111zM766 217h-111v111h111v-111zM111 655h-111v111h111v-111zM328 438h-111v109h111v-109zM547 217
h-109v111h109v-111zM111 438h-111v109h111v-109zM111 217h-111v111h111v-111zM111 0h-111v111h111v-111zM111 -217h-111v106h111v-106zM111 -436h-111v108h111v-108z" />
    <glyph glyph-name="q" unicode="q" 
d="M766 874h-111v111h111v-111zM547 874h-109v111h109v-111zM766 655h-111v111h111v-111zM328 874h-111v111h111v-111zM766 438h-111v109h111v-109zM547 438h-109v109h109v-109zM766 217h-111v111h111v-111zM111 655h-111v111h111v-111zM766 0h-111v111h111v-111zM111 438
h-111v109h111v-109zM328 217h-111v111h111v-111zM766 -217h-111v106h111v-106zM985 -436h-108v108h108v-108zM766 -436h-111v108h111v-108z" />
    <glyph glyph-name="r" unicode="r" 
d="M985 874h-108v111h108v-111zM766 874h-111v111h111v-111zM328 874h-111v111h111v-111zM547 655h-109v111h109v-111zM328 655h-111v111h111v-111zM328 438h-111v109h111v-109zM328 217h-111v111h111v-111zM328 0h-111v111h111v-111z" />
    <glyph glyph-name="s" unicode="s" 
d="M985 874h-108v111h108v-111zM766 874h-111v111h111v-111zM547 874h-109v111h109v-111zM328 874h-111v111h111v-111zM766 438h-111v109h111v-109zM985 217h-108v111h108v-111zM547 438h-109v109h109v-109zM111 655h-111v111h111v-111zM328 438h-111v109h111v-109zM766 0
h-111v111h111v-111zM547 0h-109v111h109v-111zM328 0h-111v111h111v-111zM111 0h-111v111h111v-111z" />
    <glyph glyph-name="t" unicode="t" 
d="M328 1094h-111v110h111v-110zM547 874h-109v111h109v-111zM328 874h-111v111h111v-111zM111 874h-111v111h111v-111zM328 655h-111v111h111v-111zM766 217h-111v111h111v-111zM328 438h-111v109h111v-109zM328 217h-111v111h111v-111zM547 0h-109v111h109v-111z" />
    <glyph glyph-name="u" unicode="u" 
d="M985 874h-108v111h108v-111zM985 655h-108v111h108v-111zM985 438h-108v109h108v-109zM985 217h-108v111h108v-111zM111 874h-111v111h111v-111zM766 217h-111v111h111v-111zM985 0h-108v111h108v-111zM111 655h-111v111h111v-111zM111 438h-111v109h111v-109zM547 0
h-109v111h109v-111zM111 217h-111v111h111v-111zM328 0h-111v111h111v-111z" />
    <glyph glyph-name="v" unicode="v" 
d="M985 874h-108v111h108v-111zM985 655h-108v111h108v-111zM985 438h-108v109h108v-109zM111 874h-111v111h111v-111zM766 217h-111v111h111v-111zM111 655h-111v111h111v-111zM111 438h-111v109h111v-109zM328 217h-111v111h111v-111zM547 0h-109v111h109v-111z" />
    <glyph glyph-name="w" unicode="w" 
d="M985 874h-108v111h108v-111zM985 655h-108v111h108v-111zM985 438h-108v109h108v-109zM985 217h-108v111h108v-111zM111 874h-111v111h111v-111zM547 438h-109v109h109v-109zM111 655h-111v111h111v-111zM547 217h-109v111h109v-111zM766 0h-111v111h111v-111zM111 438
h-111v109h111v-109zM111 217h-111v111h111v-111zM328 0h-111v111h111v-111z" />
    <glyph glyph-name="x" unicode="x" 
d="M985 874h-108v111h108v-111zM766 655h-111v111h111v-111zM111 874h-111v111h111v-111zM328 655h-111v111h111v-111zM547 438h-109v109h109v-109zM766 217h-111v111h111v-111zM985 0h-108v111h108v-111zM328 217h-111v111h111v-111zM111 0h-111v111h111v-111z" />
    <glyph glyph-name="y" unicode="y" 
d="M985 874h-108v111h108v-111zM766 655h-111v111h111v-111zM111 874h-111v111h111v-111zM328 655h-111v111h111v-111zM547 438h-109v109h109v-109zM547 217h-109v111h109v-111zM547 0h-109v111h109v-111zM328 -217h-111v106h111v-106zM111 -436h-111v108h111v-108z" />
    <glyph glyph-name="z" unicode="z" 
d="M985 874h-108v111h108v-111zM766 874h-111v111h111v-111zM547 874h-109v111h109v-111zM766 655h-111v111h111v-111zM328 874h-111v111h111v-111zM111 874h-111v111h111v-111zM547 438h-109v109h109v-109zM985 0h-108v111h108v-111zM766 0h-111v111h111v-111zM328 217
h-111v111h111v-111zM547 0h-109v111h109v-111zM328 0h-111v111h111v-111zM111 0h-111v111h111v-111z" />
    <glyph glyph-name="braceleft" unicode="{" 
d="M766 1313h-111v108h111v-108zM547 1094h-109v110h109v-110zM547 874h-109v111h109v-111zM328 655h-111v111h111v-111zM547 438h-109v109h109v-109zM547 217h-109v111h109v-111zM766 0h-111v111h111v-111z" />
    <glyph glyph-name="bar" unicode="|" 
d="M547 1313h-109v108h109v-108zM547 1094h-109v110h109v-110zM547 874h-109v111h109v-111zM547 438h-109v109h109v-109zM547 217h-109v111h109v-111zM547 0h-109v111h109v-111z" />
    <glyph glyph-name="braceright" unicode="}" 
d="M328 1313h-111v108h111v-108zM547 1094h-109v110h109v-110zM547 874h-109v111h109v-111zM766 655h-111v111h111v-111zM547 438h-109v109h109v-109zM547 217h-109v111h109v-111zM328 0h-111v111h111v-111z" />
    <glyph glyph-name="asciitilde" unicode="~" 
d="M985 655h-108v111h108v-111zM328 874h-111v111h111v-111zM547 655h-109v111h109v-111zM766 438h-111v109h111v-109zM111 655h-111v111h111v-111z" />
    <glyph glyph-name="nonbreakingspace" unicode="&#xa0;" 
 />
    <glyph glyph-name="circumflex" unicode="&#x2c6;" 
d="M547 1313h-109v108h109v-108zM766 1094h-111v110h111v-110zM985 874h-108v111h108v-111zM328 1094h-111v110h111v-110zM111 874h-111v111h111v-111z" />
    <glyph glyph-name="tilde" unicode="&#x2dc;" 
d="M985 655h-108v111h108v-111zM328 874h-111v111h111v-111zM547 655h-109v111h109v-111zM766 438h-111v109h111v-109zM111 655h-111v111h111v-111z" />
    <glyph glyph-name="quoteleft" unicode="&#x2018;" 
d="M547 1313h-109v108h109v-108zM328 1313h-111v108h111v-108zM547 1094h-109v110h109v-110zM328 1094h-111v110h111v-110zM328 874h-111v111h111v-111zM547 655h-109v111h109v-111z" />
    <glyph glyph-name="quoteright" unicode="&#x2019;" 
d="M547 1313h-109v108h109v-108zM328 1313h-111v108h111v-108zM547 1094h-109v110h109v-110zM328 1094h-111v110h111v-110zM547 874h-109v111h109v-111zM328 655h-111v111h111v-111z" />
    <glyph glyph-name="quotedblleft" unicode="&#x201c;" 
d="M985 1313h-108v108h108v-108zM766 1313h-111v108h111v-108zM985 1094h-108v110h108v-110zM766 1094h-111v110h111v-110zM328 1313h-111v108h111v-108zM766 874h-111v111h111v-111zM985 655h-108v111h108v-111zM111 1313h-111v108h111v-108zM328 1094h-111v110h111v-110z
M111 1094h-111v110h111v-110zM111 874h-111v111h111v-111zM328 655h-111v111h111v-111z" />
    <glyph glyph-name="quotedblright" unicode="&#x201d;" 
d="M985 1313h-108v108h108v-108zM766 1313h-111v108h111v-108zM985 1094h-108v110h108v-110zM766 1094h-111v110h111v-110zM985 874h-108v111h108v-111zM328 1313h-111v108h111v-108zM111 1313h-111v108h111v-108zM328 1094h-111v110h111v-110zM766 655h-111v111h111v-111z
M111 1094h-111v110h111v-110zM328 874h-111v111h111v-111zM111 655h-111v111h111v-111z" />
    <glyph glyph-name="bullet" unicode="&#x2022;" 
d="M985 1313h-108v108h108v-108zM766 1313h-111v108h111v-108zM985 1094h-108v110h108v-110zM547 1313h-109v108h109v-108zM766 1094h-111v110h111v-110zM985 874h-108v111h108v-111zM328 1313h-111v108h111v-108zM547 1094h-109v110h109v-110zM766 874h-111v111h111v-111z
M985 655h-108v111h108v-111zM111 1313h-111v108h111v-108zM328 1094h-111v110h111v-110zM547 874h-109v111h109v-111zM766 655h-111v111h111v-111zM985 438h-108v109h108v-109zM111 1094h-111v110h111v-110zM328 874h-111v111h111v-111zM547 655h-109v111h109v-111zM766 438
h-111v109h111v-109zM985 217h-108v111h108v-111zM111 874h-111v111h111v-111zM328 655h-111v111h111v-111zM547 438h-109v109h109v-109zM766 217h-111v111h111v-111zM985 0h-108v111h108v-111zM111 655h-111v111h111v-111zM328 438h-111v109h111v-109zM547 217h-109v111h109
v-111zM766 0h-111v111h111v-111zM985 -217h-108v106h108v-106zM111 438h-111v109h111v-109zM328 217h-111v111h111v-111zM547 0h-109v111h109v-111zM766 -217h-111v106h111v-106zM985 -436h-108v108h108v-108zM111 217h-111v111h111v-111zM328 0h-111v111h111v-111z
M547 -217h-109v106h109v-106zM766 -436h-111v108h111v-108zM111 0h-111v111h111v-111zM328 -217h-111v106h111v-106zM547 -436h-109v108h109v-108zM111 -217h-111v106h111v-106zM328 -436h-111v108h111v-108zM111 -436h-111v108h111v-108z" />
  </font>
</defs>
</svg>
